# AST/ASF file generated using VICON BodyLanguage
# -----------------------------------------------
:version 1.10
:name VICON
:units
  mass 1.0
  length 0.45
  angle deg
:documentation
   .ast/.asf automatically generated from VICON data using
   VICON BodyBuilder and BodyLanguage model FoxedUp or BRILLIANT.MOD
:root
   order TX TY TZ RX RY RZ
   axis XYZ
   position 0 0 0  
   orientation 0 0 0 
:bonedata
  begin
     id 1 
     name lhipjoint
     direction 0.702568 -0.596508 0.388042 
     length 2.56661 
     axis 0 0 0  XYZ
  end
  begin
     id 2 
     name lfemur
     direction 0.34202 -0.939693 0  
     length 6.58374  
     axis 0 0 20  XYZ
    dof rx ry rz
    limits (-160.0 20.0)
           (-70.0 70.0)
           (-60.0 70.0)
  end
  begin
     id 3 
     name ltibia
     direction 0.34202 -0.939693 0   
     length 6.62538   
     axis 0 0 20   XYZ
    dof rx
    limits (-10.0 170.0)
  end
  begin
     id 4 
     name lfoot
     direction 0.10455 -0.287249 0.952133   
     length 2.26699   
     axis -90 7.62852e-016 20   XYZ
    dof rx rz
    limits (-45.0 90.0)
           (-70.0 20.0)
  end
  begin
     id 5 
     name ltoes
     direction 1.53572e-011 -4.22322e-011 1   
     length 1.12949   
     axis -90 7.62852e-016 20   XYZ
    dof rx
    limits (-90.0 20.0)
  end
  begin
     id 6 
     name rhipjoint
     direction -0.728055 -0.574632 0.373811   
     length 2.66432  
     axis 0 0 0  XYZ 
  end
  begin
     id 7 
     name rfemur
     direction -0.34202 -0.939693 0   
     length 6.66732   
     axis 0 0 -20   XYZ
    dof rx ry rz
    limits (-160.0 20.0)
           (-70.0 70.0)
           (-70.0 60.0)
  end
  begin
     id 8 
     name rtibia
     direction -0.34202 -0.939693 0   
     length 6.59288   
     axis 0 0 -20   XYZ
    dof rx
    limits (-10.0 170.0)
 end
 begin
     id 9 
     name rfoot
     direction -0.119193 -0.327479 0.93731   
     length 2.38061  
     axis -90 -7.62852e-016 -20   XYZ
    dof rx rz
    limits (-45.0 90.0)
           (-20.0 70.0)
  end
  begin
     id 10 
     name rtoes
     direction -1.53547e-011 -4.21827e-011 1   
     length 1.17899   
     axis -90 -7.62852e-016 -20   XYZ
    dof rx
    limits (-90.0 20.0)
  end
  begin
     id 11 
     name lowerback
     direction -0.000416114 0.999912 -0.0132284   
     length 2.12109   
     axis 0 0 0   XYZ
    dof rx ry rz
    limits (-20.0 45.0)
           (-30.0 30.0)
           (-30.0 30.0)
  end
  begin
     id 12 
     name upperback
     direction -0.00136371 0.99809 0.0617608   
     length 2.10067   
     axis 0 0 0   XYZ
    dof rx ry rz
    limits (-20.0 45.0)
           (-30.0 30.0)
           (-30.0 30.0)
  end
  begin
     id 13 
     name thorax
     direction -3.43026e-005 0.997776 0.0666515   
     length 2.10618   
     axis 0 0 0   XYZ
    dof rx ry rz
    limits (-20.0 45.0)
           (-30.0 30.0)
           (-30.0 30.0)
  end
  begin
     id 14 
     name lowerneck
     direction 0.0398646 0.998418 0.0396592   
     length 1.83817   
     axis 0 0 0   XYZ
    dof rx ry rz
    limits (-20.0 45.0)
           (-30.0 30.0)
           (-30.0 30.0)
  end
  begin
     id 15 
     name upperneck
     direction -0.0367268 0.961527 -0.272244   
     length 1.81975   
     axis 0 0 0   XYZ
    dof rx ry rz
    limits (-20.0 45.0)
           (-30.0 30.0)
           (-30.0 30.0)
  end
  begin
     id 16
     name head
     direction -0.0182665 0.99536 -0.0944669  
     length 1.86026  
     axis 0 0 0   XYZ
    dof rx ry rz
    limits (-20.0 45.0)
           (-30.0 30.0)
           (-30.0 30.0)
  end
  begin
     id 17 
     name lclavicle
     direction 0.924239 0.361045 0.124212  
     length 3.26878  
     axis 0 0 0   XYZ
    dof ry rz
    limits (-20.0 10.0)
           (0.0 20.0)
  end
  begin
     id 18 
     name lhumerus
     direction 1 -4.48968e-011 -2.56583e-027   
     length 4.58538   
     axis 180 -30 -90   XYZ
    dof rx ry rz
    limits (-60.0 90.0)
           (-90.0 90.0)
           (-90.0 90.0)
  end
  begin
     id 19
     name lradius
     direction 1 -4.4898e-011 -5.50375e-027   
     length 2.68935   
     axis 180 -30 -90   XYZ
    dof rx
    limits (-10.0 170.0)
  end
  begin
     id 20
     name lwrist
     direction 1 -4.48939e-011 -1.48955e-026   
     length 1.34468   
     axis 9.0955e-015 90 90   XYZ
    dof ry
    limits (-180.0 0.0)
 end
  begin
     id 21 
     name lhand
     direction 1 -4.48936e-011 -2.97907e-026   
     length 0.585058   
     axis 1.90115e-014 90 90   XYZ
    dof rx rz
    limits (-90.0 90.0)
           (-45.0 45.0)
  end
  begin
     id 22 
     name lfingers
     direction 1 -4.49082e-011 -5.96235e-026   
     length 0.471689   
     axis 3.80223e-014 90 90   XYZ
    dof rx
    limits (0.0 90.0)
  end
  begin
     id 23
     name lthumb
     direction 0.707107 -6.3489e-011 0.707107   
     length 0.677253   
     axis -90 45 -3.84942e-014   XYZ
    dof rx rz
    limits (-45.0 45.0)
           (-45.0 45.0)
  end
  begin
     id 24 
     name rclavicle
     direction -0.923098 0.371783 0.0983239   
     length 3.19656  
     axis 0 0 0   XYZ 
    dof ry rz
    limits (-10.0 20.0)
           (-20.0 0.0)
  end
  begin
     id 25 
     name rhumerus
     direction -1 -4.48976e-011 -2.5492e-027  
     length 4.4745   
     axis 180 30 90   XYZ
    dof rx ry rz
    limits (-90.0 60.0)
           (-90.0 90.0)
           (-90.0 90.0)
  end
  begin
     id 26 
     name rradius
     direction -1 -4.48941e-011 -4.36555e-027   
     length 2.93896   
     axis 180 30 90   XYZ
    dof rx
    limits (-10.0 170.0)
  end
  begin
     id 27 
     name rwrist
     direction -1 -4.49044e-011 -1.49032e-026   
     length 1.46948   
     axis 9.0955e-015 -90 -90   XYZ
    dof ry
    limits (-180.0 0.0)
  end
  begin
     id 28
     name rhand
     direction -1 -4.48826e-011 -2.97749e-026   
     length 0.405092   
     axis 1.90115e-014 -90 -90   XYZ
    dof rx rz
    limits (-90.0 90.0)
           (-45.0 45.0)
  end
  begin
     id 29
     name rfingers
     direction -1 -4.49209e-011 -5.96602e-026   
     length 0.326596   
     axis 3.80223e-014 -90 -90   XYZ
    dof rx
    limits (0.0 90.0)
  end
  begin
     id 30
     name rthumb
     direction -0.707107 -6.34776e-011 0.707107   
     length 0.468928   
     axis -90 -45 3.84942e-014   XYZ
    dof rx rz
    limits (-45.0 45.0)
           (-45.0 45.0)
  end
:hierarchy
  begin
    root lhipjoint rhipjoint lowerback
    lhipjoint lfemur
    lfemur ltibia
    ltibia lfoot
    lfoot ltoes
    rhipjoint rfemur
    rfemur rtibia
    rtibia rfoot
    rfoot rtoes
    lowerback upperback
    upperback thorax
    thorax lowerneck lclavicle rclavicle
    lowerneck upperneck
    upperneck head
    lclavicle lhumerus
    lhumerus lradius
    lradius lwrist
    lwrist lhand lthumb
    lhand lfingers
    rclavicle rhumerus
    rhumerus rradius
    rradius rwrist
    rwrist rhand rthumb
    rhand rfingers
  end

#!OML:ASF H:\Punching\Project 1\Capture day 1\Session 1\female.ASF
:FULLY-SPECIFIED
:DEGREES
1
root 0.83413 14.8531 -2.51084 10.2079 7.69055 1.15494
lowerback -6.02781 -1.16667 -2.85445
upperback -7.28459 -1.45528 0.0728582
thorax -4.0968 -0.584855 1.63713
lowerneck -14.2948 -0.30897 6.69451
upperneck 39.129 -2.42031 -0.627825
head 16.3748 -0.0582037 -1.88862
rclavicle 6.06293e-015 -3.8763e-015
rhumerus -2.45636 10.9426 -73.5872
rradius 138.009
rwrist -17.3877
rhand -25.1527 7.26187
rfingers 7.12502
rthumb 1.3641 -22.7135
lclavicle 6.06293e-015 -3.8763e-015
lhumerus -1.97608 -32.5574 78.7629
lradius 138.62
lwrist -3.00238
lhand -22.9203 1.60374
lfingers 7.12502
lthumb 3.52006 31.5544
rfemur -42.6894 0.791098 6.0834
rtibia 43.2079
rfoot -4.64779 -14.3422
rtoes -6.22658
lfemur -3.2788 -12.3532 -21.9729
ltibia 28.7434
lfoot -34.2701 24.7972
ltoes -3.14625
2
root 0.834266 14.8553 -2.51304 10.2098 7.6427 1.14614
lowerback -5.98662 -1.15883 -2.83954
upperback -7.26017 -1.44578 0.0995426
thorax -4.09405 -0.580456 1.65722
lowerneck -14.3548 -0.298351 6.6947
upperneck 39.1217 -2.39287 -0.670391
head 16.3857 -0.0527561 -1.90342
rclavicle 1.28651e-014 -5.86415e-015
rhumerus -2.36592 10.9932 -73.5759
rradius 137.985
rwrist -17.3968
rhand -25.1924 6.99653
rfingers 7.12502
rthumb 1.32578 -22.9791
lclavicle 1.28651e-014 -5.86415e-015
lhumerus -1.95776 -32.5296 78.738
lradius 138.574
lwrist -3.06293
lhand -23.045 1.51771
lfingers 7.12502
lthumb 3.39964 31.4703
rfemur -42.7524 0.686659 6.15597
rtibia 43.2511
rfoot -4.61304 -14.2823
rtoes -5.93119
lfemur -3.27622 -12.3346 -21.9734
ltibia 28.7067
lfoot -34.2378 24.8247
ltoes -3.14888
3
root 0.835192 14.8558 -2.51511 10.2247 7.62475 1.16364
lowerback -5.96448 -1.1589 -2.82595
upperback -7.24726 -1.4466 0.111406
thorax -4.09266 -0.581391 1.66218
lowerneck -14.3377 -0.294429 6.6585
upperneck 39.0866 -2.37339 -0.667138
head 16.364 -0.0511431 -1.89135
rclavicle 1.00697e-014 1.2598e-014
rhumerus -2.30295 11.0251 -73.564
rradius 137.96
rwrist -17.4506
rhand -25.2083 6.93823
rfingers 7.12502
rthumb 1.31035 -23.0375
lclavicle 1.00697e-014 1.2598e-014
lhumerus -1.97749 -32.5507 78.7314
lradius 138.569
lwrist -3.14577
lhand -23.1216 1.62267
lfingers 7.12502
lthumb 3.32564 31.5765
rfemur -42.8116 0.62199 6.16743
rtibia 43.2941
rfoot -4.56419 -14.294
rtoes -5.9449
lfemur -3.28369 -12.3168 -21.9956
ltibia 28.6791
lfoot -34.2318 24.8191
ltoes -3.09492
4
root 0.837145 14.8558 -2.51637 10.228 7.63182 1.19851
lowerback -5.93102 -1.16439 -2.80546
upperback -7.2407 -1.4558 0.104371
thorax -4.10449 -0.58708 1.64381
lowerneck -14.3499 -0.288043 6.68588
upperneck 39.0994 -2.35766 -0.708956
head 16.3731 -0.0459202 -1.91233
rclavicle -8.74031e-015 -1.08089e-014
rhumerus -2.27324 11.0585 -73.5661
rradius 137.924
rwrist -17.4366
rhand -25.2956 6.97843
rfingers 7.12502
rthumb 1.22612 -22.9978
lclavicle -8.74031e-015 -1.08089e-014
lhumerus -1.99759 -32.5763 78.7088
lradius 138.555
lwrist -3.20147
lhand -23.2898 1.58049
lfingers 7.12502
lthumb 3.16324 31.5368
rfemur -42.8433 0.461175 6.17471
rtibia 43.3353
rfoot -4.54794 -14.172
rtoes -5.91683
lfemur -3.2721 -12.2948 -22.0356
ltibia 28.6521
lfoot -34.2029 24.8025
ltoes -3.11363
